<?xml version="1.0" standalone="no"?>
<!DOCTYPE svg PUBLIC "-//W3C//DTD SVG 20010904//EN"
 "http://www.w3.org/TR/2001/REC-SVG-20010904/DTD/svg10.dtd">
<svg version="1.0" xmlns="http://www.w3.org/2000/svg"
 width="512.000000pt" height="512.000000pt" viewBox="0 0 512.000000 512.000000"
 preserveAspectRatio="xMidYMid meet">
<metadata>
Created by potrace 1.14, written by Peter Selinger 2001-2017
</metadata>
<g transform="translate(0.000000,512.000000) scale(0.100000,-0.100000)"
fill="#000000" stroke="none">
<path d="M831 4846 c-48 -17 -105 -77 -119 -124 -7 -24 -12 -107 -12 -209 l0
-170 -137 0 c-122 0 -143 -2 -180 -21 -113 -58 -134 -213 -40 -300 39 -36 100
-49 235 -47 l122 1 0 -217 0 -217 -138 1 c-128 1 -141 -1 -182 -24 -107 -58
-129 -192 -49 -284 43 -49 95 -61 245 -61 l124 1 0 -216 0 -216 -137 0 c-122
0 -143 -3 -180 -22 -141 -71 -127 -285 21 -334 26 -8 87 -13 169 -13 l127 1
-2 -215 -3 -215 -135 -1 c-118 -1 -140 -4 -177 -23 -109 -55 -132 -204 -46
-293 39 -40 84 -52 218 -54 66 -1 126 -2 133 -3 9 -1 12 -51 12 -214 l0 -214
-137 0 c-119 0 -143 -3 -178 -20 -22 -12 -48 -29 -57 -40 -67 -74 -55 -206 24
-267 47 -35 88 -43 225 -42 l122 1 3 -192 3 -191 30 -44 c18 -25 49 -52 75
-66 l44 -22 1703 0 c1847 0 1739 -3 1796 54 44 44 60 86 65 169 l5 77 169 0
c184 0 214 7 237 57 7 16 11 163 11 444 0 449 -2 469 -50 484 -23 7 -27 25 -5
25 8 0 24 15 35 32 19 32 20 52 20 456 0 452 -2 472 -50 487 -21 7 -28 25 -9
25 13 0 32 19 47 47 9 15 12 142 12 438 0 447 -3 475 -51 490 l-23 8 26 21
c14 11 31 31 37 43 8 15 11 150 11 445 0 541 21 497 -241 498 l-176 0 -5 78
c-5 93 -32 148 -91 189 l-40 28 -1711 2 c-1340 1 -1718 -1 -1745 -11z"/>
</g>
</svg>
