<?xml version="1.0" standalone="no"?>
<!DOCTYPE svg PUBLIC "-//W3C//DTD SVG 20010904//EN"
 "http://www.w3.org/TR/2001/REC-SVG-20010904/DTD/svg10.dtd">
<svg version="1.0" xmlns="http://www.w3.org/2000/svg"
 width="768.000000pt" height="768.000000pt" viewBox="0 0 768.000000 768.000000"
 preserveAspectRatio="xMidYMid meet">
<metadata>
Created by potrace 1.14, written by Peter Selinger 2001-2017
</metadata>
<g transform="translate(0.000000,768.000000) scale(0.100000,-0.100000)"
fill="#000000" stroke="none">
<path d="M923 7660 c-34 -14 -48 -47 -57 -135 -3 -22 -9 -69 -15 -105 -14 -94
-19 -129 -26 -185 -3 -27 -8 -62 -11 -77 -3 -15 -7 -42 -9 -60 -4 -37 -13
-106 -19 -147 -9 -55 -16 -107 -21 -146 -2 -22 -7 -51 -9 -65 -3 -14 -8 -47
-11 -75 -3 -27 -8 -63 -11 -80 -3 -16 -7 -43 -9 -60 -6 -58 -16 -130 -20 -145
-2 -8 -7 -42 -11 -75 -3 -33 -8 -69 -10 -80 -2 -11 -6 -38 -9 -60 -3 -22 -7
-52 -9 -67 -2 -16 1 -28 5 -28 5 0 9 8 9 18 0 42 96 213 184 327 70 89 241
266 331 340 26 22 53 45 59 50 6 6 56 45 111 88 55 42 105 81 110 85 25 19
215 142 260 167 28 16 56 33 64 39 7 5 20 11 28 12 8 2 22 9 31 17 17 14 224
108 246 111 6 1 16 4 21 7 6 4 35 14 65 23 30 10 64 21 75 26 27 11 192 52
230 56 17 2 37 6 44 9 8 3 35 8 60 11 26 3 53 7 61 9 49 15 490 28 515 16 5
-3 30 -7 55 -9 49 -3 235 -37 235 -42 0 -1 7 -3 15 -5 81 -17 348 -138 389
-176 11 -10 24 -19 28 -19 4 0 21 -11 37 -25 16 -14 32 -25 37 -25 4 0 56 -48
117 -107 96 -94 134 -140 177 -213 6 -10 16 -24 22 -31 6 -8 32 -56 57 -106
58 -116 108 -264 130 -388 3 -16 8 -41 11 -55 20 -99 26 -394 11 -530 -13
-123 -14 -133 -25 -190 -6 -30 -13 -70 -16 -89 -3 -19 -8 -37 -10 -41 -2 -4
-7 -20 -9 -36 -32 -170 -187 -610 -252 -711 -8 -13 -11 -23 -7 -23 5 0 3 -4
-2 -8 -6 -4 -19 -27 -30 -52 -10 -25 -24 -52 -31 -60 -6 -8 -26 -42 -43 -75
-42 -81 -73 -135 -137 -233 -30 -45 -54 -85 -54 -87 0 -10 -38 -53 -103 -118
-69 -68 -145 -115 -247 -150 -61 -22 -185 -26 -924 -30 -355 -2 -369 -3 -380
-22 -6 -10 -17 -25 -23 -33 -7 -7 -13 -19 -13 -27 0 -7 -3 -15 -7 -17 -16 -6
-178 -290 -276 -481 -28 -56 -54 -104 -57 -107 -10 -10 -130 -266 -130 -278 0
-7 -4 -12 -10 -12 -5 0 -10 -4 -10 -10 0 -5 -11 -33 -24 -62 -51 -112 -107
-244 -111 -260 -2 -9 -9 -27 -16 -40 -8 -13 -14 -25 -15 -28 -1 -6 -13 -38
-24 -65 -21 -52 -55 -141 -55 -145 0 -3 -13 -38 -29 -78 -15 -39 -29 -78 -30
-85 -1 -6 -4 -16 -8 -22 -6 -11 -118 -349 -123 -375 -2 -8 -4 -16 -5 -17 -2
-2 -3 -6 -4 -10 -1 -5 -5 -14 -9 -21 -5 -6 -6 -12 -3 -12 3 0 1 -12 -5 -27 -9
-23 -82 -283 -94 -333 -2 -8 -17 -71 -33 -140 -17 -69 -32 -138 -35 -155 -3
-16 -8 -37 -11 -45 -3 -8 -7 -28 -10 -45 -6 -34 -6 -35 -41 -170 -15 -55 -28
-107 -30 -115 -16 -69 -25 -109 -29 -135 -3 -16 -8 -41 -11 -55 -12 -51 -12
-195 -1 -244 22 -92 66 -134 161 -156 75 -17 5623 -18 5664 0 33 13 41 33 56
151 11 81 13 91 19 124 3 17 8 53 11 80 3 28 8 61 11 75 3 14 7 43 9 65 2 22
6 54 9 70 2 17 8 50 11 75 3 25 8 56 10 70 2 14 7 49 10 79 3 30 8 58 11 62 2
4 7 36 9 71 3 34 7 70 10 78 2 8 7 38 10 65 2 28 7 61 10 75 6 29 13 75 20
145 4 28 9 64 12 80 3 17 6 41 8 55 5 40 14 116 20 157 4 29 -2 19 -28 -44
-50 -122 -139 -257 -247 -378 -39 -43 -208 -211 -237 -235 -10 -9 -58 -49
-108 -91 -49 -41 -142 -112 -205 -157 -63 -45 -119 -86 -125 -90 -5 -4 -17
-11 -25 -15 -8 -4 -46 -27 -85 -51 -92 -58 -241 -136 -259 -136 -8 0 -16 -5
-18 -11 -2 -5 -11 -11 -20 -13 -10 -1 -21 -5 -24 -9 -4 -4 -16 -7 -26 -7 -10
0 -18 -4 -18 -8 0 -5 -6 -9 -12 -9 -7 -1 -53 -15 -101 -32 -48 -17 -98 -33
-110 -35 -12 -3 -38 -10 -57 -16 -61 -18 -266 -54 -380 -66 -47 -5 -366 -5
-410 0 -105 12 -150 18 -195 27 -27 6 -59 12 -70 14 -93 15 -261 71 -292 97
-7 6 -13 7 -13 3 0 -5 -8 -1 -17 8 -10 8 -20 15 -23 14 -8 -1 -105 56 -108 65
-2 4 -10 8 -18 8 -8 0 -14 4 -14 8 0 5 -8 13 -19 18 -28 14 -107 81 -176 152
-106 107 -218 275 -271 407 -14 33 -29 68 -34 77 -22 40 -73 265 -88 388 -13
111 -6 439 12 540 3 14 7 41 10 60 3 19 8 46 10 60 3 14 7 36 10 50 2 14 12
57 21 95 9 39 18 79 21 91 16 82 136 414 194 539 15 33 34 75 41 93 8 17 17
32 21 32 5 0 8 6 8 13 0 20 117 227 229 406 68 107 64 102 146 186 94 95 220
159 350 179 17 2 290 5 607 5 l577 1 57 92 c31 50 64 105 74 122 138 244 205
368 296 552 60 120 109 221 109 224 0 3 10 25 22 50 35 74 74 162 95 215 11
28 25 64 32 80 33 76 51 120 52 125 0 3 4 12 7 20 37 86 192 530 202 576 2 11
10 38 18 61 9 22 13 44 10 47 -4 3 -1 6 5 6 7 0 12 8 12 18 0 10 9 48 21 83
12 35 23 73 26 84 8 38 11 50 13 50 1 0 3 7 5 15 1 8 15 61 30 117 15 56 28
110 30 120 2 10 4 19 5 21 3 2 3 2 15 57 4 22 10 45 11 50 2 6 6 24 9 40 3 17
8 38 11 47 3 9 7 25 9 35 2 10 9 41 15 68 6 28 13 57 15 65 2 8 13 51 24 95
26 96 25 93 52 225 14 66 22 143 22 206 0 90 -3 108 -26 156 -21 44 -37 60
-75 81 -26 14 -57 27 -67 28 -81 6 -5645 5 -5662 -1z"/>
</g>
</svg>
