<svg id="a03f9925-ef5d-4e8d-b318-0be453cb722e" data-name="Layer 1" xmlns="http://www.w3.org/2000/svg" viewBox="0 0 40.17 48.27"><defs><style>.b15d7b04-7337-449d-b764-75e5bf03711f{fill:#fff;}</style></defs><path class="b15d7b04-7337-449d-b764-75e5bf03711f" d="M93.63,101.24c-.47,3.35-.93,6.69-1.41,10a.73.73,0,0,1-.16.46.82.82,0,0,1-.56.14l-33.83,0c-.93,0-2,.08-2.31-.84-.42-1.21.36-3.35.62-4.55a54.49,54.49,0,0,1,1.47-5.65,55.93,55.93,0,0,1,6-13.1h6.86A4,4,0,0,0,73.65,86a28.92,28.92,0,0,0,1.63-2.73c2.38-4.51,3.91-11.15.22-15.43a9.18,9.18,0,0,0-5.63-2.9,15.43,15.43,0,0,0-10.09,2.34c-2.1,1.31-5.9,4.3-6.32,7,.47-3.34.93-6.68,1.4-10a.88.88,0,0,1,.17-.45.8.8,0,0,1,.55-.14l33.84,0c.93,0,2-.08,2.3.84.43,1.21-.35,3.34-.6,4.55-.41,1.91-.9,3.8-1.49,5.65a55.64,55.64,0,0,1-6,13.09H76.75a4,4,0,0,0-3.31,1.76,31.31,31.31,0,0,0-1.64,2.73c-2.52,4.79-4.09,12,.54,16.19a8.33,8.33,0,0,0,3.14,1.76,14.79,14.79,0,0,0,11.83-2C89.41,106.92,93.2,103.92,93.63,101.24Z" transform="translate(-53.46 -63.62)"/></svg>